<svg xmlns="http://www.w3.org/2000/svg" xmlns:xlink="http://www.w3.org/1999/xlink" width="53" height="60" viewBox="0 0 53 60"><defs><path id="76nta" d="M977.577 3218.686a3.385 3.385 0 0 0-2.921-1.686H962.11v14.84h23.076z"/><path id="76ntb" d="M958.593 3217h-12.665a3.384 3.384 0 0 0-2.923 1.69l-7.58 13.15h23.168V3217z"/><path id="76ntc" d="M968.274 3251.13l-9.095 9.095a1.754 1.754 0 0 1-2.487 0l-4.263-4.262a1.76 1.76 0 0 1 2.487-2.487l3.02 3.02 7.851-7.852a1.758 1.758 0 1 1 2.487 2.487zm-34.109-15.773v37.508a4.14 4.14 0 0 0 4.136 4.135h43.98a4.14 4.14 0 0 0 4.137-4.135v-37.508z"/></defs><g><g transform="translate(-934 -3217)"><g><g><g><use xlink:href="#76nta"/></g><g><use xlink:href="#76ntb"/></g><g><use xlink:href="#76ntc"/></g></g></g></g></g></svg>