<svg xmlns="http://www.w3.org/2000/svg" xmlns:xlink="http://www.w3.org/1999/xlink" width="26" height="25" viewBox="0 0 26 25"><defs><path id="m1m2a" d="M1498.933 97.267v2.4h-18.456l3.576-6.492-4.32-9.108h-2.4v-2.4h3.924l1.128 2.4h19.788l-5.28 9.564a2.389 2.389 0 0 1-2.1 1.236h-8.94l-1.32 2.4zm-12 6c0 1.32-1.08 2.4-2.4 2.4a2.397 2.397 0 0 1-2.388-2.4c0-1.32 1.068-2.4 2.388-2.4 1.32 0 2.4 1.08 2.4 2.4zm12 0c0 1.32-1.08 2.4-2.4 2.4a2.397 2.397 0 0 1-2.388-2.4c0-1.32 1.068-2.4 2.388-2.4 1.32 0 2.4 1.08 2.4 2.4z"/></defs><g><g transform="translate(-1477 -81)"><use xlink:href="#m1m2a"/></g></g></svg>