<svg xmlns="http://www.w3.org/2000/svg" xmlns:xlink="http://www.w3.org/1999/xlink" width="60" height="60" viewBox="0 0 60 60"><defs><path id="ldfka" d="M1374.002 3217v16h16z"/><path id="ldfkb" d="M1340.003 3261c-3.308 0-6-2.693-6-6 0-3.308 2.692-6 6-6s6 2.692 6 6-2.692 6-6 6zm9.944 13.515l-3.064-12.292c1.912-1.82 3.12-4.38 3.12-7.223 0-5.512-4.488-10-10-10s-10 4.488-10 10c0 2.844 1.208 5.403 3.12 7.223l-3.064 12.292a2.015 2.015 0 0 0 .692 2.048 2.009 2.009 0 0 0 2.144.228l7.108-3.556 7.104 3.556a2.02 2.02 0 0 0 2.148-.228c.608-.492.88-1.288.692-2.048z"/><path id="ldfkc" d="M1380.002 3245h-24a2 2 0 0 1 0-4h24a2 2 0 0 1 0 4zm0 12h-20a2 2 0 0 1 0-4h20a2 2 0 0 1 0 4zm-28-24a2 2 0 0 1 0-4h12a2 2 0 0 1 0 4zm22 4c-2.204 0-4-1.796-4-4v-16h-24c-2.203 0-4 1.796-4 4v20.204c6.769.98 12 6.76 12 13.796 0 3.024-.96 5.895-2.735 8.283l2.424 9.716h32.311c2.208 0 4-1.792 4-4v-32h-16z"/></defs><g><g transform="translate(-1330 -3217)"><g><g><g/></g></g><g><g><g><use xlink:href="#ldfka"/></g></g></g><g><g><g><use xlink:href="#ldfkb"/></g></g></g><g><g><g><use xlink:href="#ldfkc"/></g></g></g></g></g></svg>