<svg xmlns="http://www.w3.org/2000/svg" xmlns:xlink="http://www.w3.org/1999/xlink" width="80" height="51" viewBox="0 0 80 51"><defs><path id="tvdla" d="M586 3267.866c-1.103 0-2-.897-2-2 0-1.104.897-2 2-2s2 .896 2 2c0 1.103-.897 2-2 2zm0-8.8c-3.75 0-6.8 3.05-6.8 6.8s3.05 6.8 6.8 6.8c3.749 0 6.8-3.05 6.8-6.8s-3.051-6.8-6.8-6.8z"/><path id="tvdlb" d="M575.2 3243.6v-8a1.6 1.6 0 0 1 1.6-1.6h7.048a1.6 1.6 0 0 1 1.229.575l6.666 8c.868 1.042.127 2.624-1.23 2.624H576.8a1.6 1.6 0 0 1-1.6-1.6zm10.149-12.8H573.6a1.6 1.6 0 0 0-1.6 1.6v31.2a1.6 1.6 0 0 0 1.6 1.6h1.697c.792 0 1.494-.571 1.596-1.357.628-4.811 4.466-7.795 9.108-7.795s8.48 2.984 9.108 7.795c.102.786.803 1.356 1.596 1.356h1.695a1.6 1.6 0 0 0 1.6-1.6V3248c0-.376-.132-.739-.373-1.026l-13.051-15.6a1.6 1.6 0 0 0-1.227-.574z"/><path id="tvdlc" d="M521.6 3265.2h4.097c.792 0 1.493-.57 1.596-1.356.628-4.811 4.465-7.795 9.108-7.795 4.642 0 8.48 2.984 9.108 7.795.102.786.803 1.356 1.596 1.356H567.2a1.6 1.6 0 0 0 1.6-1.6v-40a1.6 1.6 0 0 0-1.6-1.6h-45.6a1.6 1.6 0 0 0-1.6 1.6v40a1.6 1.6 0 0 0 1.6 1.6z"/><path id="tvdld" d="M536.4 3267.866c-1.103 0-2-.897-2-2 0-1.104.897-2 2-2s2 .896 2 2c0 1.103-.897 2-2 2zm0-8.8c-3.75 0-6.8 3.05-6.8 6.8s3.05 6.8 6.8 6.8c3.749 0 6.8-3.05 6.8-6.8s-3.051-6.8-6.8-6.8z"/></defs><g><g transform="translate(-520 -3222)"><g><g><use xlink:href="#tvdla"/></g><g><use xlink:href="#tvdlb"/></g><g><use xlink:href="#tvdlc"/></g><g><use xlink:href="#tvdld"/></g></g></g></g></svg>