<svg xmlns="http://www.w3.org/2000/svg" xmlns:xlink="http://www.w3.org/1999/xlink" width="24" height="24" viewBox="0 0 24 24"><defs><path id="yqboa" d="M1419.328 3541.743a.938.938 0 0 1-1.693.379.94.94 0 0 1-.038-.997.925.925 0 0 1 .567-.434.924.924 0 0 1 .707.093.94.94 0 0 1 .457.959zm-5.786 14.057a7.279 7.279 0 0 1-9.342-9.342 6.886 6.886 0 0 1 4.258-4.258 7.279 7.279 0 0 1 9.342 9.342 6.885 6.885 0 0 1-4.258 4.258zM1399 3541.987v14.026a4.987 4.987 0 0 0 4.987 4.987h14.026a4.987 4.987 0 0 0 4.987-4.987v-14.026a4.987 4.987 0 0 0-4.987-4.987h-14.026a4.987 4.987 0 0 0-4.987 4.987z"/><path id="yqbob" d="M1411 3543.17a5.837 5.837 0 0 0-5.83 5.83 5.837 5.837 0 0 0 5.83 5.83 5.837 5.837 0 0 0 5.83-5.83 5.837 5.837 0 0 0-5.83-5.83z"/></defs><g><g opacity=".5" transform="translate(-1399 -3537)"><g opacity=".5"><use xlink:href="#yqboa"/></g><g opacity=".5"><use xlink:href="#yqbob"/></g></g></g></svg>